PathFileType	4	(X/Y/Z)	D:\TRACE\spotREDO_2-26-24\spot_justBody_Motion_2_7-v60.trc
DataRate	CameraRate	NumFrames	NumMarkers	Units	OrigDataRate	OrigDataStartFrame	OrigNumFrames
100.00	100.00	      34	9	mm	100.00	6126	      7000
Frame#	Time	front left toe			Front right toe			aft left toe			aft right toe			Arm			FL body			FR body			AL Body			AR Body			
		X1	Y1	Z1	X2	Y2	Z2	X3	Y3	Z3	X4	Y4	Z4	X5	Y5	Z5	X6	Y6	Z6	X7	Y7	Z7	X8	Y8	Z8	X9	Y9	Z9	

6126	61.250	-55.17208	10.53868	-261.33960	438.53564	16.97514	-118.52274	-167.31593	32.20369	260.74527	311.27890	56.41389	418.96057	250.11055	785.94391	-289.22855	159.45621	528.08795	-283.15909	304.28891	533.53894	-225.10722	-177.11754	595.48492	531.77228	-46.60849	601.18341	586.26172	
6127	61.260	-53.99222	11.37968	-260.71292	439.47903	17.38192	-118.03561	-166.34554	31.74096	260.97366	312.27744	55.60576	419.31900	251.32251	785.98682	-288.80557	160.35947	528.15875	-282.76126	305.27426	533.48358	-224.78424	-176.33954	595.45618	531.98901	-45.84616	600.98590	586.67120	
6128	61.270	-53.47747	11.87651	-260.22842	440.30942	17.52068	-117.85413	-165.31291	31.31053	261.24045	313.57733	54.76698	419.29440	252.18358	786.04315	-288.26895	161.28958	528.08093	-282.43878	306.10724	533.51764	-224.27785	-175.52962	595.37701	532.51379	-44.78358	600.92688	586.90466	
6129	61.280	-51.87850	12.48071	-260.28543	441.97095	17.80275	-117.43733	-164.09010	30.77878	261.58203	314.67038	54.04892	419.58798	253.04810	786.09851	-287.80450	162.11282	528.26617	-282.02408	306.96817	533.56763	-223.91734	-174.86749	595.31146	532.80920	-44.14272	600.74707	587.16956	
6130	61.290	-51.01326	13.01615	-259.89017	442.64359	18.02599	-117.29129	-162.87463	30.25411	261.94675	316.01172	53.41809	419.90659	254.47235	785.97394	-287.23639	163.41158	528.35681	-281.62717	308.10712	533.75421	-223.50012	-174.22050	595.31836	533.05811	-43.61461	600.78400	587.45978	
6131	61.300	-49.44852	13.28565	-259.94876	444.00702	18.33181	-117.03645	-161.88794	29.79596	262.13635	316.98175	52.69143	420.25793	255.29961	786.06525	-286.89246	164.28575	528.34143	-281.03436	309.07376	533.74469	-222.87637	-173.47501	595.28088	533.35199	-42.73108	600.66656	587.97723	
6132	61.310	-48.46371	13.76972	-259.50201	445.30045	19.18742	-116.23026	-160.85216	29.22440	262.34268	317.99844	51.81260	420.69205	256.31366	786.18024	-286.34235	165.38107	528.39374	-280.70779	310.24362	533.77332	-222.30502	-172.77617	595.15662	533.63300	-42.11420	600.59119	588.26758	
6133	61.320	-47.32779	14.38988	-259.14722	446.03094	18.88462	-116.31046	-159.41460	28.31267	262.80334	319.41272	51.40447	420.96643	257.78134	786.40912	-285.58054	166.60072	528.55463	-280.04633	311.46335	533.82831	-221.69955	-171.99139	595.04614	533.91614	-41.60992	600.31598	588.70093	
6134	61.330	-45.19890	14.01755	-259.08893	447.33932	19.72719	-115.73070	-158.39771	27.97837	262.98602	320.57437	50.48816	421.39084	258.99243	786.55945	-284.94388	168.09917	528.80176	-279.72226	312.54846	534.01770	-221.18394	-171.22906	594.77173	534.42505	-40.92266	600.16797	589.28754	
6135	61.340	-44.19498	14.78660	-258.56653	448.33740	19.47484	-115.57364	-157.43086	27.45112	262.96658	321.55060	49.64558	421.30411	260.31686	786.62109	-284.09344	169.13087	528.94220	-278.98602	313.71964	534.16711	-220.54381	-170.51688	594.73145	534.88239	-40.15070	600.00739	589.76971	
6136	61.350	-42.67904	15.22665	-258.09332	449.69177	19.95030	-115.21193	-156.33374	26.96813	263.45306	322.70694	48.70790	421.64075	261.56598	786.74115	-283.25894	170.35521	528.97882	-278.52838	315.01630	534.33838	-219.67175	-169.54114	594.63916	535.30731	-39.38129	599.80737	590.26996	
6137	61.360	-43.23503	17.20506	-257.84155	450.64990	20.14504	-114.92958	-154.97229	26.35246	263.85001	323.71872	47.91698	421.97678	263.10129	786.98730	-282.45813	171.62576	529.54681	-277.78183	316.24103	534.32935	-219.12556	-168.79068	594.50409	535.64551	-38.36600	599.43933	590.83820	
6138	61.370	-42.13566	17.56083	-257.41968	451.94644	20.53399	-114.40285	-154.08853	25.79453	263.89948	325.20886	47.31042	422.43146	264.42245	787.14728	-281.62610	173.13643	529.50952	-277.15289	318.03006	534.62439	-218.28285	-167.94859	594.26038	536.25446	-37.83123	599.20776	591.32379	
6139	61.380	-39.62978	17.22592	-257.36960	452.65021	20.85750	-114.20724	-152.72722	25.25769	264.25894	326.28159	46.47070	422.78036	265.96777	787.45758	-280.72739	174.27054	529.68750	-276.54318	319.15973	534.73682	-217.42383	-166.81348	593.92407	536.94012	-36.43978	599.00946	591.89807	
6140	61.390	-38.48456	17.81770	-257.12430	454.08893	21.16018	-113.72638	-151.64449	24.74694	264.62531	327.28033	45.38779	423.19128	267.26895	787.66809	-279.61429	175.89632	529.99261	-275.68582	320.20242	534.76141	-216.89963	-166.06398	593.83746	537.38354	-35.67056	598.69269	592.59973	
6141	61.400	-37.32340	18.32253	-256.61874	455.01715	21.58080	-113.55062	-150.66972	24.23176	264.67654	328.33191	44.59531	423.25775	269.00549	788.01794	-278.65714	177.28098	530.28784	-275.02631	321.56161	535.09552	-216.04121	-164.83601	593.47278	538.11676	-34.46092	598.24017	593.54169	
6142	61.410	-36.06269	18.79242	-256.21570	456.09784	21.75826	-113.05445	-149.30240	23.55930	265.21390	329.51788	43.52828	423.71024	270.39746	788.24536	-277.75613	178.48741	530.49341	-274.04419	323.19098	535.38202	-214.94217	-163.62317	593.19055	538.84277	-33.61875	597.85010	594.13647	
6143	61.420	-35.09557	19.52942	-256.06302	457.25507	22.52425	-112.39416	-148.26433	23.04672	265.61755	330.86252	42.94273	424.06509	272.21375	788.42578	-276.36255	180.17433	531.09186	-273.40250	324.47476	535.36420	-214.27554	-162.62425	592.95416	539.54510	-32.60878	597.49231	595.12811	
6144	61.430	-34.00453	20.04378	-255.81181	458.35431	22.28919	-112.33675	-147.20992	22.51352	265.65353	331.85593	42.15550	424.47165	273.70038	788.76581	-275.14792	181.28072	531.34406	-272.75647	326.23154	535.63556	-213.31532	-161.20616	592.57068	540.47314	-31.04514	597.01758	595.85303	
6145	61.440	-32.92142	20.84268	-255.49809	459.68790	22.91312	-111.86312	-146.05516	22.07374	265.97720	332.96429	41.19894	424.89542	275.66714	789.06287	-273.85239	183.01599	531.94312	-271.66095	327.31082	535.79626	-212.31703	-159.94182	592.34534	541.45569	-29.74179	596.45618	597.02716	
6146	61.450	-31.90167	21.23666	-254.89963	460.29126	23.02169	-111.75043	-144.66881	21.21917	266.49268	333.98376	40.22625	424.97983	277.30081	789.36725	-272.57993	184.45491	532.16382	-270.90283	329.04025	535.82867	-211.04501	-158.35876	592.01617	542.31818	-28.11981	596.08221	597.97754	
6147	61.460	-30.68438	21.94796	-254.51106	461.56882	23.51156	-111.24922	-143.84903	20.86342	266.67795	334.66284	39.46143	424.99503	279.25458	789.65057	-271.15198	186.10843	532.51617	-269.47562	330.52933	535.72003	-210.11668	-156.78384	591.83679	543.64941	-26.32243	595.38110	599.14697	
6148	61.470	-30.34151	22.31277	-254.35960	462.35767	23.73168	-110.69262	-143.01997	19.90692	266.94522	335.78915	38.60252	425.30615	281.30038	789.69458	-269.45154	187.93242	532.60590	-268.03076	332.28754	535.75958	-208.68251	-155.07298	591.53516	545.07788	-25.05427	595.05487	600.55090	
6149	61.480	-34.88735	29.85570	-252.53738	463.87042	22.54908	-110.68817	-141.74551	19.06704	267.37531	337.45313	37.20966	425.93085	283.53979	789.63446	-267.80942	189.87231	532.82275	-266.59720	334.13046	535.92621	-207.39862	-153.51985	591.25726	546.24017	-23.35115	593.96967	602.05670	
6150	61.490	-32.89680	39.33141	-246.53798	464.77545	23.38574	-109.17393	-140.25281	18.99436	267.82504	338.91742	36.01572	426.74194	285.47876	790.18665	-266.16748	192.11916	532.88397	-265.85986	336.07257	535.87720	-206.06516	-152.41040	591.00800	547.12006	-22.69301	594.19574	602.98145	
6151	61.500	-29.62179	49.01988	-241.46994	466.17969	23.61616	-108.77895	-139.12152	18.47418	268.16016	339.97443	35.34087	426.97604	286.78424	790.19080	-265.38889	193.83965	532.36084	-264.05176	338.35352	535.95844	-204.61932	-150.88525	590.71893	548.02728	-20.95791	594.24402	603.98370	
6152	61.510	-29.75225	60.34840	-241.09140	467.11969	23.93086	-108.52840	-137.85260	17.92539	268.59134	341.50409	34.32633	427.71552	288.36343	789.83240	-264.20752	195.66304	532.40881	-263.09058	340.03427	535.88837	-203.27914	-149.40179	590.51935	549.11487	-19.52478	593.93726	604.77783	
6153	61.520	-25.90044	71.24910	-243.38689	468.21524	24.23499	-108.01415	-136.93437	17.89583	268.83838	342.44339	33.58828	427.91684	290.15515	789.55560	-263.05569	197.39365	532.69861	-262.34729	341.66870	535.81866	-202.11505	-147.84651	590.31903	550.19641	-17.67357	593.65527	606.24774	
6154	61.530	-25.27797	83.19781	-246.46454	469.13593	24.64710	-107.79724	-135.46455	17.04722	269.09879	343.95035	32.70899	428.52878	291.95810	789.52289	-261.87952	199.16417	532.39069	-260.50403	343.15182	535.98578	-201.09653	-146.40543	589.87592	551.30383	-16.40284	593.14063	607.44208	
6155	61.540	-20.84504	93.51247	-245.97165	470.18350	24.87447	-107.31068	-134.51167	16.35435	269.74670	344.87158	31.43592	428.79611	293.56943	789.98151	-260.39035	200.56900	532.62561	-259.80664	344.73575	536.06177	-199.95740	-144.92871	589.11066	552.27771	-15.17102	592.41150	608.33557	
6156	61.550	-20.26458	103.19345	-243.67017	471.11676	25.05223	-106.93465	-133.43060	15.80278	269.86169	345.61221	30.41199	429.18896	295.07114	790.23785	-259.20102	202.18007	533.12732	-258.85776	346.97519	536.35498	-198.97731	-143.99692	588.30487	553.04382	-14.14299	591.39648	609.11456	
6157	61.560	-19.84628	110.77339	-239.71538	472.10635	25.31534	-106.44769	-132.95654	15.52696	270.06061	346.83057	29.24075	429.66888	296.69455	790.61707	-257.55307	204.00458	533.09552	-257.82181	348.45660	536.53363	-197.90550	-142.83122	587.39142	553.68262	-12.78902	590.49097	609.99554	
6158	61.570	-19.16200	117.81161	-236.37587	473.02066	25.98492	-105.83360	-131.63820	14.51648	270.67346	347.51956	28.74831	429.88974	298.25723	790.95135	-256.52692	205.51530	533.28119	-257.14832	349.63120	536.51355	-197.14456	-141.81194	586.61523	554.42902	-12.33035	589.83582	610.68256	
6159	61.580	-19.16183	123.54046	-235.39986	474.15536	25.98066	-105.50578	-130.78902	14.03388	271.00464	348.58206	27.75679	430.26492	299.94586	790.95258	-255.37225	207.15388	533.42322	-256.16974	351.03052	536.52814	-196.07593	-140.67378	585.83612	555.16333	-10.72681	588.93268	611.51373	
